<svg version="1" xmlns="http://www.w3.org/2000/svg" width="1365.333" height="1365.333" viewBox="0 0 1024.000000 1024.000000"><path d="M69.3 163.7c1 18.1 1.9 25.8 5.2 46.3 2.8 17.6 4.5 25.5 9.1 43 3.3 12.5 12.9 43.2 14.2 45.5.4.5.7 1.4.8 2 .1.5 1.8 5.1 3.8 10.2 19.4 49.8 50.5 105.6 85.1 152.8 5.5 7.6 23.5 30.8 28.3 36.5 3 3.6 7.3 8.7 9.5 11.5 26.5 31.8 71 75.8 107.7 106.4 6.3 5.3 12 10 12.6 10.6.6.5 2.6 2.1 4.4 3.5 1.8 1.4 5.7 4.4 8.5 6.7 11.3 9.1 38 28.2 57 40.7 20.9 13.9 21.6 14.3 35.7 22.6 5.2 3 8.5 5.6 8.2 6.3-.6 1.3-8.6 7.3-26.3 19.5-31.3 21.7-72.4 42.4-106.5 53.7-13.5 4.5-22.4 7.2-26.3 8-3.5.7-3.5.6-3.6 9.5 0 3.3.1 3.5 3.4 3.4 1.9 0 6.6-.4 10.4-.8 3.9-.5 8.4-.9 10-1.1 1.7-.1 4.4-.5 6-.9 1.7-.3 5-.8 7.5-1.1 2.5-.3 7.9-1.2 12-2s8.7-1.7 10.3-2c6.4-1.2 8.7-1.7 18.7-4.2 26.8-6.5 52.1-14.5 76.5-24.3 14.6-5.8 49.9-21.2 57.7-25.1 3.2-1.6 6.4-2.9 7.2-2.9.8 0 5.4 1.8 10.3 4.1 70.8 32.9 117.9 48 179.3 57.4 5.3.8 10.7 1.5 15.5 2 2.8.2 7.3.7 10.1 1l5.2.6V797c0-6.8-.3-7.1-8.3-8.8-8.5-1.8-35.3-11.1-49.7-17.3-30-12.8-51.7-24.8-78.5-43.3-17.4-11.9-20.1-13.9-24.2-17.3l-3.4-2.9 3.7-2c2.1-1 4.6-2.3 5.7-2.9 1-.5 1.9-1.3 1.9-1.7 0-.5.5-.8 1-.8 1.4 0 8.9-4.7 32.8-20.5 27.6-18.3 44.7-30.8 69.7-50.9 43.5-35 91.1-81.7 124.5-122.1 4.1-5 7.7-9.2 8-9.5.9-.8 14.3-18 20.7-26.5 4.9-6.5 24.5-34.5 28.3-40.5 14.2-22.1 25.2-41.3 36.4-63.3 11.3-22.2 18.7-38.6 24.8-54.7 2.2-5.8 4.4-11.4 4.9-12.5 3.2-7 15.9-49.3 17.5-58.4.3-1.4 1.1-5.1 1.9-8.1.7-3 1.6-7.2 1.9-9.2.3-2.1 1-5.7 1.5-8 .5-2.4 1.2-6.8 1.6-9.8.3-3 .8-6.2 1-7 .2-.8.7-4 1-7 .4-3 .8-6.6 1-8 .2-1.4.7-7.7 1.1-14 .4-6.3.8-12.6.9-14 .1-1.4 0-2.8-.2-3.2-.2-.4-3.2.3-6.6 1.6-31.9 12.3-69.6 26.8-71.2 27.6-4.5 2.1-40.6 15.8-64 24.2-21.8 7.9-38.1 13-99 30.9-7.1 2.1-18.8 5.5-25.8 7.6l-12.8 3.8-.4 25c-.2 13.7-.7 27.7-1 31-.6 6.4-3.2 26-4 31-3 17-4.2 23-7.1 35.5-5.9 25.6-18.4 65.2-25.9 82.5-.7 1.6-3.1 7.3-5.3 12.5-18.8 44.9-44.7 90.4-74.5 131-10.2 13.9-29.5 37.6-36.5 44.9-1.2 1.4-4.8 5.2-7.8 8.6l-5.6 6.2-5.1-5.5c-2.9-3-6.1-6.5-7.2-7.6-4.1-4.3-14-16-15.4-18-.8-1.2-1.8-2.3-2.1-2.6-.5-.4-6.3-7.6-13.7-17-23.8-30.1-55.7-83.2-72.6-120.5-2.5-5.5-5.7-12.7-7.2-16-11.4-25.1-26.3-70-33-99.5-.9-3.7-5.4-26.8-5.9-30-.3-1.9-.8-4.6-1-6-.3-1.4-.7-4.5-1-7-.3-2.5-.8-5.4-1-6.6-.2-1.1-.7-5.6-1.1-10-.3-4.3-.8-9.3-1.1-10.9-.3-1.7-.7-13.8-.8-27l-.2-24-16-4.8c-8.7-2.6-18.1-5.4-20.9-6.2-2.7-.8-9.5-2.7-15-4.3-51.7-15.4-64.8-19.3-68.6-20.8-9.5-3.5-14.9-5.5-27-9.8-6.9-2.5-13.7-5-15-5.5-1.3-.6-14.8-5.8-29.9-11.6-15.1-5.8-28.4-10.9-29.5-11.4-1.1-.5-5.1-2.1-9-3.6-3.8-1.5-8.6-3.3-10.5-4-1.9-.8-9.6-3.7-17-6.5-7.4-2.9-14.9-5.8-16.7-6.6-1.7-.8-3.4-1.4-3.8-1.4-.5 0-.5 5.3-.2 11.7z"/></svg>